# xmcd
#
# Track frame offsets: 
#        150
#        26307
#        40625
#        51537
#        67152
#        76225
#        98167
#
# Disc length: 1482 seconds
#
# Revision: 0
# Processed by: cddbd v1.4PL0 Copyright (c) Steve Scherf et al.
# Submitted via: ExactAudioCopy v0.90a11
#
DISCID=5305c807
DTITLE=Chris Cain - Christmas Cain, Blues for the Holidays
DYEAR=1900
DGENRE=
TTITLE0=Not in the Mood for Christmas
TTITLE1=Christmas Will Really Be Christmas
TTITLE2=The First Day of Christmas
TTITLE3=The Little Drummer Boy Meets B.B.
TTITLE4=Help Me Santa
TTITLE5=Twelve Years of Christmas
TTITLE6=Christmas Will Really Be Christmas (take 2)
EXTD=
EXTT0=
EXTT1=
EXTT2=
EXTT3=
EXTT4=
EXTT5=
EXTT6=
PLAYORDER=
